<svg xmlns="http://www.w3.org/2000/svg" viewBox="0 0 64 64" id="3-d-modeling"><path d="M56 50a5.96 5.96 0 0 0-3.471 1.115l-2.969-2.969c1.197-.703 2.392-1.712 2.44-3.218v-14a3.453 3.453 0 0 0-1.52-3.202L33.955 16.598a3.522 3.522 0 0 0-.956-.453V13.91C40.154 12.554 39.336 2.17 32 2c-7.337.17-8.153 10.556-1 11.91v2.235a3.517 3.517 0 0 0-.955.453L13.52 27.726A3.453 3.453 0 0 0 12 30.928v14a4.139 4.139 0 0 0 2.44 3.218l-2.969 2.969A5.997 5.997 0 1 0 8 62a6.025 6.025 0 0 0 4.885-9.471l3.245-3.244 13.915 9.375a3.495 3.495 0 0 0 3.913-.003l13.913-9.372 3.244 3.244A6.025 6.025 0 0 0 56 61.999c7.929-.25 7.928-11.748 0-11.999ZM8 60a4 4 0 0 1 0-8 4 4 0 0 1 0 8ZM28 8a4 4 0 0 1 8 0 4 4 0 0 1-8 0ZM14.638 29.384 31 18.365V30a1 1 0 0 0 2 0V18.365l16.362 11.019a1.508 1.508 0 0 1 0 2.49L32.838 43a1.498 1.498 0 0 1-1.676 0L14.638 31.873a1.508 1.508 0 0 1 0-2.49Zm2.932 18.46 3.137-3.137a1 1 0 0 0-1.414-1.414l-3.413 3.413-1.249-.842A1.441 1.441 0 0 1 14 44.861V33.854L30.045 44.66a3.508 3.508 0 0 0 .955.452v11.78ZM33 56.892v-11.78a3.508 3.508 0 0 0 .955-.453L50 33.854v11.007a1.449 1.449 0 0 1-.639 1.008l-1.241.837-3.413-3.413a1 1 0 0 0-1.414 1.414l3.137 3.137ZM56 60a4 4 0 0 1 0-8 4 4 0 0 1 0 8Z" data-name="Layer 2"></path></svg>