<?xml version="1.0" standalone="no"?>
<!DOCTYPE svg PUBLIC "-//W3C//DTD SVG 20010904//EN"
 "http://www.w3.org/TR/2001/REC-SVG-20010904/DTD/svg10.dtd">
<svg version="1.0" xmlns="http://www.w3.org/2000/svg"
 width="666.000000pt" height="375.000000pt" viewBox="0 0 666.000000 375.000000"
 preserveAspectRatio="xMidYMid meet">

<g transform="translate(0.000000,375.000000) scale(0.100000,-0.100000)"
fill="#000000" stroke="none">
<path d="M3183 2900 c-162 -4 -226 -8 -235 -18 -8 -8 -14 -46 -16 -95 -2 -45
-8 -87 -14 -94 -5 -6 -7 -43 -4 -81 4 -66 3 -70 -20 -80 -20 -10 -24 -9 -24 4
0 13 -9 11 -47 -11 -27 -15 -62 -41 -79 -56 -34 -33 -46 -29 -39 10 3 14 -8
-7 -24 -46 -16 -40 -48 -94 -70 -119 -23 -26 -41 -51 -41 -55 0 -5 -9 -9 -20
-9 -28 0 -54 -54 -46 -99 8 -52 -23 -201 -48 -229 -16 -18 -22 -40 -24 -96 -4
-65 -2 -75 21 -102 35 -41 73 -197 58 -232 -10 -21 -8 -33 15 -78 15 -30 33
-54 40 -54 7 0 17 -6 21 -13 4 -7 20 -20 35 -30 38 -24 72 -96 108 -227 39
-143 46 -154 116 -169 31 -7 56 -11 57 -9 27 51 34 63 42 61 6 -2 13 -38 16
-80 10 -126 19 -170 41 -198 21 -26 23 -27 97 -19 42 4 169 8 283 8 155 1 210
4 220 14 8 8 14 45 15 105 1 51 6 117 11 147 l10 55 1 -43 1 -43 38 7 c20 4
51 12 68 19 36 15 50 47 83 188 28 119 67 204 103 223 15 8 28 19 28 24 0 6 6
10 13 10 8 0 24 23 37 50 18 39 24 71 26 133 1 45 6 121 12 170 13 109 2 232
-33 347 -14 47 -28 103 -30 125 -10 76 -63 152 -139 200 -9 6 -29 54 -45 108
-44 147 -65 169 -118 127 -14 -11 -29 -17 -34 -14 -16 9 -39 -23 -39 -55 0
-17 -4 -31 -10 -31 -12 0 -12 43 1 135 16 118 19 179 10 193 -12 19 -76 32
-146 30 -33 -1 -160 -5 -282 -8z m-78 -36 c50 -8 113 -19 140 -25 28 -5 104
-13 169 -19 65 -5 121 -12 124 -15 8 -8 22 -118 16 -127 -3 -4 -138 -8 -300
-8 -267 0 -295 2 -301 17 -7 17 12 166 22 183 8 13 26 13 130 -6z m-8 -956
c-3 -8 -6 -5 -6 6 -1 11 2 17 5 13 3 -3 4 -12 1 -19z m-170 -870 c-2 -13 -4
-5 -4 17 -1 22 1 32 4 23 2 -10 2 -28 0 -40z m700 0 c-3 -7 -5 -2 -5 12 0 14
2 19 5 13 2 -7 2 -19 0 -25z m-260 6 c-3 -3 -12 -4 -19 -1 -8 3 -5 6 6 6 11 1
17 -2 13 -5z m-249 -221 c-10 -2 -26 -2 -35 0 -10 3 -2 5 17 5 19 0 27 -2 18
-5z m169 1 c-3 -3 -12 -4 -19 -1 -8 3 -5 6 6 6 11 1 17 -2 13 -5z"/>
<path d="M2782 2584 c-28 -19 -20 -34 17 -34 36 0 62 27 40 41 -20 12 -31 11
-57 -7z"/>
<path d="M2716 2544 c-4 -14 -5 -28 -3 -31 3 -2 8 8 11 23 4 14 5 28 3 31 -3
2 -8 -8 -11 -23z"/>
</g>
</svg>
